<svg width="571" height="126" viewBox="0 0 571 126" fill="none" xmlns="http://www.w3.org/2000/svg">
<path d="M437.858 95.8975C434.587 98.8271 430.754 100.292 426.359 100.292C421.574 100.292 417.497 98.6074 414.128 95.2383C410.759 91.8691 409.074 87.792 409.074 83.0068C409.074 78.2217 410.759 74.1445 414.128 70.7754C417.497 67.4062 421.574 65.7217 426.359 65.7217C430.754 65.7217 434.587 67.1865 437.858 70.1162C441.716 73.583 443.645 77.8799 443.645 83.0068C443.645 88.1338 441.716 92.4307 437.858 95.8975ZM446.574 45.0674C440.227 41.6982 433.488 40.0137 426.359 40.0137C414.494 40.0137 404.362 44.2129 395.964 52.6113C387.565 61.0098 383.366 71.1416 383.366 83.0068C383.366 94.8721 387.565 105.004 395.964 113.402C404.362 121.801 414.494 126 426.359 126C432.365 126 438.127 124.804 443.645 122.411V125.78H469.353V45.0674H446.574ZM519.89 100.292C515.495 100.292 511.662 98.8027 508.391 95.8242C504.533 92.4062 502.604 88.1338 502.604 83.0068C502.604 77.8311 504.533 73.5342 508.391 70.1162C511.662 67.1865 515.495 65.7217 519.89 65.7217C524.675 65.7217 528.752 67.4062 532.121 70.7754C535.49 74.1445 537.175 78.2217 537.175 83.0068C537.175 87.7432 535.49 91.7959 532.121 95.165C528.752 98.583 524.675 100.292 519.89 100.292ZM519.89 39.9404C513.884 39.9404 508.122 41.1611 502.604 43.6025V12.5479H476.896V125.78H502.604V122.411C508.122 124.804 513.884 126 519.89 126C531.755 126 541.911 121.801 550.358 113.402C558.757 105.004 562.956 94.8721 562.956 83.0068C562.956 71.1416 558.757 60.9854 550.358 52.5381C541.911 44.1396 531.755 39.9404 519.89 39.9404Z" fill="#282828"/>
<path d="M334.088 12.8408V40.1602H318.707V65.8682H334.088V126H359.796V65.8682H375.909V40.1602H359.796V12.8408H334.088Z" fill="#282828"/>
<path d="M136.857 39.1729C125.822 39.1729 116.203 42.8594 108 50.2324C107.609 50.623 107.121 51.0869 106.535 51.624C98.1367 43.3232 88.0537 39.1729 76.2861 39.1729C69.0596 39.1729 62.2725 40.8574 55.9248 44.2266L47.5732 53.9521L33 58.9521V125.452H58.8545V82.459C58.8545 77.2832 60.7832 72.9619 64.6406 69.4951C67.9609 66.5166 71.8428 65.0273 76.2861 65.0273C81.0713 65.0273 85.1484 66.7363 88.5176 70.1543C91.9355 73.5234 93.6445 77.625 93.6445 82.459V125.452H119.499V82.459C119.499 77.2832 121.428 72.9619 125.285 69.4951C128.605 66.5166 132.463 65.0273 136.857 65.0273C141.691 65.0273 145.793 66.7363 149.162 70.1543C152.58 73.5234 154.289 77.625 154.289 82.459V125.452H180.144V82.459C180.144 70.4961 175.92 60.291 167.473 51.8438C159.025 43.3965 148.82 39.1729 136.857 39.1729Z" fill="#0FB7A0"/>
<path d="M212.956 24.3779C212.956 27.8447 211.735 30.7988 209.294 33.2402C206.853 35.6816 203.923 36.9023 200.505 36.9023C197.038 36.9023 194.084 35.6816 191.643 33.2402C189.201 30.7988 187.98 27.8447 187.98 24.3779C187.98 21.2041 189.055 18.4209 191.203 16.0283C193.303 13.6846 195.915 12.3418 199.04 12H201.97C205.095 12.3418 207.707 13.6846 209.807 16.0283C211.906 18.4209 212.956 21.2041 212.956 24.3779ZM187.688 125.525H212.736V44.5195H187.688V125.525Z" fill="#0FB7A0"/>
<path d="M267.375 39.2461C260.197 39.2461 253.435 40.9307 247.087 44.2998H224.162V125.452H250.017V82.459C250.017 77.2832 251.945 72.9863 255.803 69.5684C259.074 66.5898 262.932 65.1006 267.375 65.1006C272.16 65.1006 276.262 66.7852 279.68 70.1543C283.049 73.5723 284.733 77.6738 284.733 82.459V125.452H310.588V82.459C310.588 70.5449 306.364 60.3643 297.917 51.917C289.47 43.4697 279.289 39.2461 267.375 39.2461Z" fill="#0FB7A0"/>
<path d="M7.5 19.5H22C37.1878 19.5 49.5 31.8122 49.5 47V61.5H35C19.8122 61.5 7.5 49.1878 7.5 34V19.5Z" stroke="#0FB7A0" stroke-width="15"/>
</svg>
